<?xml version="1.0" encoding="UTF-8"?>
<svg width="32px" height="28px" viewBox="0 0 32 28" version="1.1" xmlns="http://www.w3.org/2000/svg" xmlns:xlink="http://www.w3.org/1999/xlink">
    <!-- Generator: Sketch 56.3 (81716) - https://sketch.com -->
    <title>Lib:next/Icons/White/Card/ic_mastercar_dark</title>
    <desc>Created with Sketch.</desc>
    <g id="Symbols" stroke="none" stroke-width="1" fill="none" fill-rule="evenodd">
        <g id="Lib:next/Icons/White/Card/ic_mastercar_dark">
            <g id="Group-13" transform="translate(0.000000, 4.000000)">
                <polygon id="Fill-6" fill="#F79E1B" points="30.7325265 15.6232234 30.861347 15.6232234 30.861347 15.934823 30.9212444 15.934823 30.9212444 15.6232234 31.0579966 15.6232234 31.0579966 15.5587546 30.7325265 15.5587546"></polygon>
                <polygon id="Fill-8" fill="#F79E1B" points="31.3398974 15.8273211 31.2250256 15.5587009 31.1265641 15.5587009 31.1265641 15.9347692 31.1974017 15.9347692 31.1974017 15.6500317 31.3043419 15.8944762 31.378188 15.8944762 31.4845812 15.6500317 31.4845812 15.9347692 31.5529573 15.9347692 31.5529573 15.5587009 31.4547692 15.5587009"></polygon>
                <path d="M17.5880205,3.96513065 C17.1036444,3.35966056 16.5470632,2.81301832 15.9305846,2.3370232 L15.9270291,2.3370232 L15.9305846,2.33997802 C13.554106,4.17169963 12.1674393,6.97502076 12.169895,9.94193162 C12.1666188,12.9080366 13.5521915,15.7113578 15.9273026,17.5436166 L15.9305846,17.5436166 C20.2060034,14.2436166 20.948294,8.16420269 17.5880205,3.96513065" id="Fill-1" fill="#FF5F00"></path>
                <path d="M12.1699009,9.94179731 C12.1674393,6.97488645 13.5543795,4.17183394 15.9305846,2.33984371 L15.9270291,2.33715751 C11.6513368,-0.959619048 5.46412308,-0.230315018 2.10494359,3.96768254 C-1.25505641,8.1670232 -0.513039316,14.2461685 3.76265299,17.5467057 C7.33325128,20.3024811 12.3599863,20.3024811 15.9305846,17.5467057 C15.9294906,17.5456313 15.9283966,17.5448254 15.9273026,17.5437509 C13.5521915,15.7114921 12.1666188,12.9081709 12.1699009,9.94179731" id="Fill-3" fill="#EB001B"></path>
                <path d="M15.9305846,2.33715751 C16.5470632,2.812884 17.1036444,3.35952625 17.5880205,3.96526496 C20.948294,8.164337 20.2060034,14.2437509 15.9305846,17.5437509 C17.6656957,18.8833602 19.8086017,19.6118584 22.0160547,19.6118584 C27.4535932,19.612127 31.8622085,15.2827741 31.8622085,9.94179731 L31.8622085,9.93911111 C31.8622085,7.77134554 31.1207385,5.66670574 29.7564991,3.96257875 C26.3954051,-0.235956044 20.2054564,-0.963648352 15.9305846,2.33715751" id="Fill-10" fill="#F79E1B"></path>
            </g>
        </g>
    </g>
</svg>